<svg xmlns="http://www.w3.org/2000/svg" viewBox="0 0 120 120"><path fill="#aaa" d="M94.4,26.6C85.9,16.2,73.1,10,60.2,10C47,10,33.5,16.7,25,27.5c-7.6,9.6-10.3,21.2-7.6,32.6C23.9,86.9,50,110,60.1,110    c10.3,0,37.2-23.6,42.7-50C105.2,48.2,102.3,36.3,94.4,26.6z M49.3,73c-0.6,0.1-1.2,0.1-1.9,0.1c-4.5,0-8.8-1.5-12.3-4.4    c-4-3.3-6.4-7.9-6.9-13.1l-0.1-1.2c-0.2-1.8,0.4-3.6,1.5-5c1.2-1.4,2.8-2.3,4.6-2.4l1.2-0.1c5.1-0.5,10.2,1.1,14.1,4.3    c4,3.3,6.4,7.9,6.9,13.1l0.1,1.2c0.2,1.8-0.4,3.6-1.5,5c-1.2,1.4-2.8,2.3-4.6,2.4L49.3,73z M56.4,82.8c-1.3,0.2-2.5-0.8-2.7-2.1    c-0.2-1.3,0.8-2.5,2.1-2.7c1.3-0.2,2.5,0.8,2.7,2.1C58.7,81.4,57.7,82.6,56.4,82.8z M64.2,82.8c-1.3,0.2-2.5-0.8-2.7-2.1    c-0.2-1.3,0.8-2.5,2.1-2.7c1.3-0.2,2.5,0.8,2.7,2.1C66.5,81.4,65.5,82.6,64.2,82.8z M91.9,54.4l-0.1,1.2c-1,10-9.4,17.5-19.2,17.5    c-0.6,0-1.2,0-1.8-0.1l-1.2-0.1c-3.7-0.3-6.5-3.7-6.1-7.4l0.1-1.2C64.5,53.8,74,46,84.6,47l1.2,0.1C89.5,47.4,92.2,50.7,91.9,54.4    z"/></svg>
