<?xml version="1.0" standalone="no"?>
<!DOCTYPE svg PUBLIC "-//W3C//DTD SVG 20010904//EN"
 "http://www.w3.org/TR/2001/REC-SVG-20010904/DTD/svg10.dtd">
<svg version="1.0" xmlns="http://www.w3.org/2000/svg"
 width="16.000000pt" height="16.000000pt" viewBox="0 0 16.000000 16.000000"
 preserveAspectRatio="xMidYMid meet">
<metadata>
Created by potrace 1.11, written by Peter Selinger 2001-2013
</metadata>
<g transform="translate(0.000000,16.000000) scale(0.006250,-0.006250)"
fill="#000000" stroke="none">
<path d="M1860 2415 c-404 -91 -848 -406 -1277 -909 -125 -147 -244 -325 -326
-491 -138 -280 -164 -520 -75 -700 26 -52 103 -131 153 -158 49 -25 191 -35
262 -18 277 67 578 230 856 465 180 150 487 470 594 616 203 279 308 481 363
700 28 110 25 244 -7 305 -33 62 -110 131 -188 166 -63 29 -81 33 -180 35 -71
2 -133 -2 -175 -11z m358 -172 c85 -63 101 -197 43 -374 -60 -187 -191 -410
-377 -644 -112 -141 -407 -436 -549 -549 -494 -394 -916 -520 -1033 -308 l-23
41 38 -15 c56 -24 195 -14 298 20 566 190 1339 963 1530 1531 34 100 44 230
23 292 -14 37 -14 41 1 36 9 -3 31 -17 49 -30z m-534 -228 c14 -13 27 -30 27
-37 9 -88 -5 -148 -59 -256 -164 -328 -573 -713 -873 -823 -156 -57 -229 -30
-229 85 0 219 331 646 695 898 202 140 375 193 439 133z"/>
<path d="M1489 1972 c-52 -33 -112 -100 -141 -156 -16 -32 -18 -43 -9 -63 15
-33 41 -26 121 29 66 45 89 44 45 -2 -20 -21 -35 -28 -50 -24 -16 4 -31 -6
-63 -40 -49 -53 -51 -63 -17 -72 41 -10 67 2 133 62 102 92 152 182 122 219
-18 22 -63 18 -96 -7 -24 -19 -23 -15 9 20 58 66 27 85 -54 34z m-9 -92 c-8
-6 -24 -16 -35 -22 -20 -11 -20 -11 -1 11 11 11 26 21 35 21 14 0 14 -2 1 -10z"/>
<path d="M1214 1701 c-21 -16 -63 -54 -93 -84 l-53 -55 6 -51 c3 -28 9 -75 12
-103 3 -29 10 -57 16 -63 6 -7 43 25 107 90 108 111 139 166 127 229 -13 71
-58 84 -122 37z m17 -108 c2 -46 -1 -57 -26 -82 l-23 -23 -7 53 c-6 44 -5 55
11 66 28 21 44 16 45 -14z"/>
<path d="M930 1426 c-44 -43 -45 -47 -81 -197 -21 -85 -35 -156 -33 -158 9 -9
94 88 94 107 0 10 16 34 35 52 30 29 37 32 46 20 7 -12 17 -6 55 32 l45 48
-57 70 c-31 38 -57 70 -58 70 -1 0 -21 -20 -46 -44z m16 -112 c-4 -9 -9 -15
-11 -12 -3 3 -3 13 1 22 4 9 9 15 11 12 3 -3 3 -13 -1 -22z"/>
<path d="M704 1209 l-72 -71 -7 -76 c-3 -43 -8 -98 -11 -124 -3 -27 -1 -48 4
-48 22 0 155 144 177 193 44 94 45 179 4 190 -18 5 -38 -9 -95 -64z m41 -93
c-4 -20 -16 -47 -26 -59 -18 -22 -18 -22 -19 27 0 33 6 56 17 68 23 25 36 9
28 -36z"/>
</g>
</svg>
